<svg id="Layer_1" data-name="Layer 1" xmlns="http://www.w3.org/2000/svg" viewBox="0 0 154 154"><defs><style>.cls-1{fill:#58bb69;}.cls-2{fill:#fff;}.cls-3{fill:none;}</style></defs><path class="cls-1" d="M133.68,62.22H117.49V11.77a12,12,0,0,0-11.95-12H36.67a12,12,0,0,0-12,12V141.52a12,12,0,0,0,12,11.95h68.87a12,12,0,0,0,11.95-11.95V126h16.19a5.37,5.37,0,0,0,5.36-5.36V67.58A5.37,5.37,0,0,0,133.68,62.22Zm-20.93,79.3a7.22,7.22,0,0,1-7.21,7.22H36.67a7.22,7.22,0,0,1-7.22-7.22V11.77a7.22,7.22,0,0,1,7.22-7.22h68.87a7.22,7.22,0,0,1,7.21,7.22V62.22H80.59a5.36,5.36,0,0,0-5.35,5.36v53.08A5.36,5.36,0,0,0,80.59,126h32.16ZM135,120.66a1.36,1.36,0,0,1-1.36,1.36H80.59a1.35,1.35,0,0,1-1.35-1.36V67.58a1.35,1.35,0,0,1,1.35-1.36h53.09A1.36,1.36,0,0,1,135,67.58Z"/><path class="cls-1" d="M60.43,54.34H42.3a5.73,5.73,0,0,1-5.72-5.72V30.49a5.73,5.73,0,0,1,5.72-5.72H60.43a5.73,5.73,0,0,1,5.73,5.72V48.62A5.73,5.73,0,0,1,60.43,54.34ZM42.3,29.5a1,1,0,0,0-1,1V48.62a1,1,0,0,0,1,1H60.43a1,1,0,0,0,1-1V30.49a1,1,0,0,0-1-1Z"/><path class="cls-1" d="M98.72,54.34H80.59a5.73,5.73,0,0,1-5.72-5.72V30.49a5.73,5.73,0,0,1,5.72-5.72H98.72a5.73,5.73,0,0,1,5.73,5.72V48.62A5.73,5.73,0,0,1,98.72,54.34ZM80.59,29.5a1,1,0,0,0-1,1V48.62a1,1,0,0,0,1,1H98.72a1,1,0,0,0,1-1V30.49a1,1,0,0,0-1-1Z"/><path class="cls-1" d="M60.43,91.43H42.3a5.73,5.73,0,0,1-5.72-5.72V67.58a5.73,5.73,0,0,1,5.72-5.72H60.43a5.73,5.73,0,0,1,5.73,5.72V85.71A5.73,5.73,0,0,1,60.43,91.43ZM42.3,66.59a1,1,0,0,0-1,1V85.71a1,1,0,0,0,1,1H60.43a1,1,0,0,0,1-1V67.58a1,1,0,0,0-1-1Z"/><circle class="cls-1" cx="71.1" cy="136.5" r="6.14"/><path class="cls-2" d="M133.68,66.22H80.59a1.35,1.35,0,0,0-1.35,1.36v53.08A1.35,1.35,0,0,0,80.59,122h53.09a1.36,1.36,0,0,0,1.36-1.36V67.58A1.36,1.36,0,0,0,133.68,66.22ZM98.24,101.51a2,2,0,0,1-1.42.59,2,2,0,0,1-1.41-.59l-5-5a3.33,3.33,0,0,1,0-4.72l4.82-4.82A2,2,0,0,1,98,89.77l-1.36,1.36-3,3,3.1,3.1,1.47,1.47A2,2,0,0,1,98.24,101.51Zm15.12-15.58-9.42,18.42a2,2,0,0,1-1.78,1.09,2,2,0,0,1-.91-.22,2,2,0,0,1-.87-2.69l9.42-18.42a2,2,0,0,1,3.56,1.82ZM123.9,96.48l-5,5a1.94,1.94,0,0,1-1.37.59h0a2,2,0,0,1-1.41-.59,2,2,0,0,1,0-2.82l1.45-1.45v0l3.1-3.1-4.35-4.35a2,2,0,0,1,0-2.83,1.94,1.94,0,0,1,1.24-.56,1.9,1.9,0,0,1,1.59.56l4.82,4.82a3.33,3.33,0,0,1,0,4.72Z"/><path class="cls-1" d="M98.24,101.51a2,2,0,0,1-1.42.59,2,2,0,0,1-1.41-.59l-5-5a3.33,3.33,0,0,1,0-4.72l4.82-4.82A2,2,0,0,1,98,89.77l-1.36,1.36-3,3,3.1,3.1,1.47,1.47A2,2,0,0,1,98.24,101.51Z"/><path class="cls-1" d="M124.88,94.12a3.32,3.32,0,0,1-1,2.36l-5,5a1.94,1.94,0,0,1-1.37.59h0a2,2,0,0,1-1.41-.59,2,2,0,0,1,0-2.82l4.56-4.57-4.35-4.35a2,2,0,0,1,0-2.83,1.94,1.94,0,0,1,1.24-.56,1.9,1.9,0,0,1,1.59.56l4.82,4.82A3.32,3.32,0,0,1,124.88,94.12Z"/><line class="cls-3" x1="102.16" y1="103.45" x2="111.58" y2="85.02"/><path class="cls-1" d="M113.36,85.93l-9.42,18.42a2,2,0,0,1-1.78,1.09,2,2,0,0,1-.91-.22,2,2,0,0,1-.87-2.69l9.42-18.42a2,2,0,0,1,3.56,1.82Z"/></svg>