<svg id="Layer_1" data-name="Layer 1" xmlns="http://www.w3.org/2000/svg" viewBox="0 0 154 154"><defs><style>.cls-1{fill:#e4c354;}</style></defs><path class="cls-1" d="M149.15,61.91,134.09,59A1.42,1.42,0,0,1,133,58a59.52,59.52,0,0,0-3-7.21,1.44,1.44,0,0,1,.12-1.44l8.57-12.72a6,6,0,0,0-.74-7.59l-13-13a6,6,0,0,0-7.6-.74l-12.72,8.57a1.44,1.44,0,0,1-1.44.12A59.52,59.52,0,0,0,96,21a1.42,1.42,0,0,1-.93-1.1l-3-15.07A6,6,0,0,0,86.2,0H67.8a6,6,0,0,0-5.89,4.85L59,19.91A1.42,1.42,0,0,1,58,21a59.52,59.52,0,0,0-7.21,3,1.44,1.44,0,0,1-1.44-.12L36.66,15.31a6,6,0,0,0-7.59.74l-13,13a6,6,0,0,0-.74,7.6l8.57,12.72A1.44,1.44,0,0,1,24,50.82,59.52,59.52,0,0,0,21,58a1.42,1.42,0,0,1-1.1.93L4.84,61.91A6,6,0,0,0,0,67.8V86.2a6,6,0,0,0,4.85,5.89l15.06,3A1.42,1.42,0,0,1,21,96a59.52,59.52,0,0,0,3,7.21,1.44,1.44,0,0,1-.12,1.44l-8.57,12.72a6,6,0,0,0,.74,7.59l13,13a6,6,0,0,0,7.6.74l12.72-8.57a1.44,1.44,0,0,1,1.44-.12A59.52,59.52,0,0,0,58,133a1.42,1.42,0,0,1,.93,1.1l2.95,15.07A6,6,0,0,0,67.8,154H86.2a6,6,0,0,0,5.89-4.85l3-15.06A1.42,1.42,0,0,1,96,133a59.52,59.52,0,0,0,7.21-3,1.44,1.44,0,0,1,1.44.12l12.72,8.57a6,6,0,0,0,7.59-.74l13-13a6,6,0,0,0,.74-7.6l-8.57-12.72a1.44,1.44,0,0,1-.12-1.44A59.52,59.52,0,0,0,133,96a1.42,1.42,0,0,1,1.1-.93l15.07-3A6,6,0,0,0,154,86.2V67.8A6,6,0,0,0,149.15,61.91ZM150,86.2a2,2,0,0,1-1.61,2l-15.07,2.94a5.46,5.46,0,0,0-4.13,3.58,51.68,51.68,0,0,1-2.78,6.72,5.49,5.49,0,0,0,.39,5.45l8.57,12.72a2,2,0,0,1-.24,2.53l-13,13a2,2,0,0,1-2.52.24l-12.72-8.57a5.49,5.49,0,0,0-5.45-.39,51.68,51.68,0,0,1-6.72,2.78,5.46,5.46,0,0,0-3.58,4.13l-2.94,15.06a2,2,0,0,1-2,1.62H67.8a2,2,0,0,1-2-1.61l-2.94-15.07a5.46,5.46,0,0,0-3.58-4.13,51.68,51.68,0,0,1-6.72-2.78,5.35,5.35,0,0,0-2.37-.55,5.55,5.55,0,0,0-3.08.94l-12.72,8.57a2,2,0,0,1-2.53-.24l-13-13a2,2,0,0,1-.24-2.52l8.57-12.72a5.49,5.49,0,0,0,.39-5.45,51.68,51.68,0,0,1-2.78-6.72,5.46,5.46,0,0,0-4.13-3.58L5.62,88.17A2,2,0,0,1,4,86.2V67.8a2,2,0,0,1,1.61-2l15.07-2.94a5.46,5.46,0,0,0,4.13-3.58,52.86,52.86,0,0,1,2.78-6.72,5.49,5.49,0,0,0-.39-5.45L18.63,34.42a2,2,0,0,1,.24-2.53l13-13a2,2,0,0,1,2.52-.24L47.14,27.2a5.49,5.49,0,0,0,5.45.39,51.68,51.68,0,0,1,6.72-2.78,5.46,5.46,0,0,0,3.58-4.13L65.83,5.62A2,2,0,0,1,67.8,4H86.2a2,2,0,0,1,2,1.61l2.94,15.07a5.46,5.46,0,0,0,3.58,4.13,51.68,51.68,0,0,1,6.72,2.78,5.49,5.49,0,0,0,5.45-.39l12.72-8.57a2,2,0,0,1,2.53.24l13,13a2,2,0,0,1,.24,2.52L126.8,47.14a5.49,5.49,0,0,0-.39,5.45,52.86,52.86,0,0,1,2.78,6.72,5.46,5.46,0,0,0,4.13,3.58l15.06,2.94a2,2,0,0,1,1.62,2Z"/><path class="cls-1" d="M77,37.74A39.26,39.26,0,1,0,116.26,77,39.3,39.3,0,0,0,77,37.74Zm0,74.52A35.26,35.26,0,1,1,112.26,77,35.3,35.3,0,0,1,77,112.26Z"/><path class="cls-1" d="M68.26,65.4a2,2,0,0,0-2.83-2.83L54,74.05a4.58,4.58,0,0,0,0,6.48l10.9,10.9a2,2,0,0,0,2.83,0,2,2,0,0,0,0-2.83L56.79,77.7a.59.59,0,0,1,0-.83Z"/><path class="cls-1" d="M85.74,62.57a2,2,0,0,0,0,2.83L97.21,76.87a.61.61,0,0,1,.17.42.57.57,0,0,1-.17.41L86.31,88.6a2,2,0,0,0,0,2.83,2,2,0,0,0,2.83,0L100,80.53a4.59,4.59,0,0,0,0-6.48L88.57,62.57A2,2,0,0,0,85.74,62.57Z"/></svg>